<svg width="249" height="249" viewBox="0 0 249 249" fill="none" xmlns="http://www.w3.org/2000/svg">
<g filter="url(#filter0_bd)">
<rect x="48" y="48" width="90" height="90" rx="15.5172" fill="url(#paint0_linear)" fill-opacity="0.5"/>
<g filter="url(#filter1_i)">
<path d="M106.14 92.7288V79.5361C106.14 76.9017 108.27 74.766 110.897 74.766C113.525 74.766 115.655 76.9017 115.655 79.5361V104.586C115.655 115.651 106.709 124.62 95.6724 124.62H87.8462C79.8303 124.62 72.5202 120.025 69.0288 112.79L62.7831 99.4518C61.5111 96.7351 62.716 93.501 65.4531 92.2857C68.0064 91.152 70.9998 92.1835 72.3185 94.6514L75.6897 100.961V70.2413C75.6897 67.6068 77.8198 65.4712 80.4475 65.4712C83.0751 65.4712 85.2053 67.6068 85.2053 70.2413V71.3861M95.6724 90.2756V70.7183C95.6724 67.8204 98.0156 65.4712 100.906 65.4712C103.796 65.4712 106.14 67.8204 106.14 70.7183V79.7814M85.2053 90.2756V66.9022C85.2053 64.0044 87.5484 61.6552 90.4389 61.6552C93.3293 61.6552 95.6724 64.0044 95.6724 66.9022V72.1493" stroke="#7EA0E0" stroke-width="3.3588" stroke-linecap="round" stroke-linejoin="round"/>
</g>
<rect x="48.2761" y="48.2761" width="89.4478" height="89.4478" rx="15.2411" stroke="url(#paint1_linear)" stroke-width="0.552243"/>
</g>
<defs>
<filter id="filter0_bd" x="0.664875" y="0.664875" width="247.784" height="247.784" filterUnits="userSpaceOnUse" color-interpolation-filters="sRGB">
<feFlood flood-opacity="0" result="BackgroundImageFix"/>
<feGaussianBlur in="BackgroundImage" stdDeviation="4.73351"/>
<feComposite in2="SourceAlpha" operator="in" result="effect1_backgroundBlur"/>
<feColorMatrix in="SourceAlpha" type="matrix" values="0 0 0 0 0 0 0 0 0 0 0 0 0 0 0 0 0 0 127 0"/>
<feOffset dx="31.5568" dy="31.5568"/>
<feGaussianBlur stdDeviation="39.4459"/>
<feColorMatrix type="matrix" values="0 0 0 0 0.115529 0 0 0 0 0.0941177 0 0 0 0 0.247059 0 0 0 0.1 0"/>
<feBlend mode="normal" in2="effect1_backgroundBlur" result="effect2_dropShadow"/>
<feBlend mode="normal" in="SourceGraphic" in2="effect2_dropShadow" result="shape"/>
</filter>
<filter id="filter1_i" x="60.5962" y="59.9757" width="56.7384" height="67.5652" filterUnits="userSpaceOnUse" color-interpolation-filters="sRGB">
<feFlood flood-opacity="0" result="BackgroundImageFix"/>
<feBlend mode="normal" in="SourceGraphic" in2="BackgroundImageFix" result="shape"/>
<feColorMatrix in="SourceAlpha" type="matrix" values="0 0 0 0 0 0 0 0 0 0 0 0 0 0 0 0 0 0 127 0" result="hardAlpha"/>
<feOffset dy="1.24138"/>
<feGaussianBlur stdDeviation="0.62069"/>
<feComposite in2="hardAlpha" operator="arithmetic" k2="-1" k3="1"/>
<feColorMatrix type="matrix" values="0 0 0 0 0 0 0 0 0 0 0 0 0 0 0 0 0 0 0.1 0"/>
<feBlend mode="normal" in2="shape" result="effect1_innerShadow"/>
</filter>
<linearGradient id="paint0_linear" x1="48" y1="48" x2="68.5565" y2="149.342" gradientUnits="userSpaceOnUse">
<stop stop-color="#EAFFFE"/>
<stop offset="1" stop-color="#CDC9F1"/>
</linearGradient>
<linearGradient id="paint1_linear" x1="50.4" y1="49.053" x2="70.3941" y2="147.907" gradientUnits="userSpaceOnUse">
<stop stop-color="white"/>
<stop offset="1" stop-color="white" stop-opacity="0"/>
</linearGradient>
</defs>
</svg>
