<svg width="26" height="26" viewBox="0 0 26 26" fill="none" xmlns="http://www.w3.org/2000/svg">
<path d="M20.708 15.9747C19.8684 15.7941 19.2042 16.1839 18.6161 16.5243C18.0137 16.8752 16.8684 17.8042 16.212 17.5665C12.8509 16.1826 9.68968 13.2407 8.32125 9.86614C8.08006 9.19564 9.00482 8.04306 9.35305 7.43364C9.69097 6.8437 10.0727 6.17321 9.89862 5.32729C9.74127 4.56713 7.70603 1.97741 6.98635 1.26923C6.51172 0.801437 6.02548 0.544153 5.52635 0.502572C3.64976 0.422009 1.55391 2.92598 1.18633 3.52501C0.265443 4.80233 0.270602 6.50196 1.2018 8.56283C3.44598 14.0983 11.9338 22.4522 17.4901 24.7808C18.5155 25.2603 19.4531 25.5007 20.2953 25.5007C21.1195 25.5007 21.8533 25.2707 22.484 24.8146C22.96 24.5404 25.5665 22.3405 25.4982 20.4135C25.4569 19.9223 25.2003 19.4311 24.7385 18.9555C24.0356 18.2292 21.4626 16.1332 20.708 15.9747Z" fill="black"/>
</svg>
