<svg width="59" height="55" viewBox="0 0 59 55" fill="none" xmlns="http://www.w3.org/2000/svg">
<path fill-rule="evenodd" clip-rule="evenodd" d="M27.6338 3.17302C20.3637 -1.85686 12.1325 -0.455166 6.60939 4.22041C1.10232 8.88242 -1.85674 16.9086 1.27735 25.1801C2.33809 27.9796 3.75837 30.6948 5.67263 33.1147C9.77522 38.301 18.5595 48.5179 28.0496 53.7048C28.4407 53.9186 28.7469 54.0166 29.0046 54.0081C29.2624 54.0166 29.5685 53.9186 29.9597 53.7048C39.4497 48.5179 48.234 38.301 52.3366 33.1147C54.2509 30.6948 55.6712 27.9796 56.7319 25.1801C59.866 16.9086 56.9069 8.88242 51.3999 4.22041C45.8768 -0.455166 37.6455 -1.85686 30.3754 3.17302C29.8853 3.5121 29.4242 3.83665 29.0046 4.1403C28.5851 3.83665 28.1239 3.5121 27.6338 3.17302ZM29.0047 11.0623C29.2652 10.7979 29.5228 10.5303 29.7804 10.2627C30.3192 9.70298 30.858 9.14328 31.4238 8.61203C31.9182 8.14789 32.5111 7.63386 33.098 7.22781C38.368 3.58173 44.2303 4.54053 48.3038 7.98892C52.3933 11.4509 54.5338 17.3121 52.22 23.4186C51.2999 25.8469 50.1079 28.0949 48.5673 30.0424C44.6989 34.9326 37.074 43.7279 29.0046 48.6139C20.9352 43.7279 13.3103 34.9326 9.44195 30.0424C7.90139 28.0949 6.70931 25.8469 5.78923 23.4186C3.47547 17.3121 5.616 11.4509 9.7055 7.98892C13.779 4.54053 19.6413 3.58173 24.9113 7.22781C25.2045 7.43065 25.4748 7.61992 25.7224 7.79545C26.9877 8.69245 28.0558 9.82648 29.0047 11.0623Z" fill="#E42A8F"/>
</svg>
