<svg width="58" height="58" viewBox="0 0 58 58" fill="none" xmlns="http://www.w3.org/2000/svg">
<path d="M42.514 0C52.374 0 58 5.568 58 15.457V42.543C58 52.374 52.403 58 42.543 58H15.457C5.568 58 0 52.374 0 42.543V15.457C0 5.568 5.568 0 15.457 0H42.514ZM28.971 15.979C27.637 15.979 26.564 17.052 26.564 18.386V26.564H18.357C17.719 26.564 17.11 26.825 16.646 27.26C16.211 27.724 15.95 28.3301 15.95 28.971C15.95 30.305 17.023 31.378 18.357 31.407H26.564V39.614C26.564 40.948 27.637 42.021 28.971 42.021C30.305 42.021 31.378 40.948 31.378 39.614V31.407H39.614C40.948 31.378 42.021 30.305 42.021 28.971C42.021 27.637 40.948 26.564 39.614 26.564H31.378V18.386C31.378 17.052 30.305 15.979 28.971 15.979Z" fill="#627EB5"/>
</svg>
